<svg xmlns="http://www.w3.org/2000/svg" width="22" height="23" viewBox="0 0 22 23" fill="none">
<path d="M6.48261 0.876953H15.5127C18.9527 0.876953 21.7477 3.67198 21.7477 7.11201V16.1421C21.7477 17.7957 21.0908 19.3816 19.9215 20.5509C18.7522 21.7202 17.1663 22.3771 15.5127 22.3771H6.48261C3.04258 22.3771 0.247559 19.5821 0.247559 16.1421V7.11201C0.247559 5.45837 0.904464 3.87246 2.07376 2.70316C3.24306 1.53386 4.82897 0.876953 6.48261 0.876953ZM6.26761 3.02697C5.24121 3.02697 4.25686 3.43471 3.53108 4.16048C2.80531 4.88625 2.39758 5.87061 2.39758 6.897V16.3571C2.39758 18.4964 4.12834 20.2271 6.26761 20.2271H15.7277C16.7541 20.2271 17.7384 19.8194 18.4642 19.0936C19.19 18.3678 19.5977 17.3835 19.5977 16.3571V6.897C19.5977 4.75774 17.867 3.02697 15.7277 3.02697H6.26761ZM16.6414 4.63948C16.9978 4.63948 17.3396 4.78106 17.5916 5.03306C17.8436 5.28507 17.9852 5.62686 17.9852 5.98325C17.9852 6.33963 17.8436 6.68143 17.5916 6.93343C17.3396 7.18543 16.9978 7.32701 16.6414 7.32701C16.2851 7.32701 15.9433 7.18543 15.6913 6.93343C15.4393 6.68143 15.2977 6.33963 15.2977 5.98325C15.2977 5.62686 15.4393 5.28507 15.6913 5.03306C15.9433 4.78106 16.2851 4.63948 16.6414 4.63948ZM10.9977 6.252C12.4232 6.252 13.7904 6.8183 14.7984 7.82631C15.8064 8.83433 16.3727 10.2015 16.3727 11.627C16.3727 13.0526 15.8064 14.4198 14.7984 15.4278C13.7904 16.4358 12.4232 17.0021 10.9977 17.0021C9.5721 17.0021 8.20494 16.4358 7.19692 15.4278C6.1889 14.4198 5.6226 13.0526 5.6226 11.627C5.6226 10.2015 6.1889 8.83433 7.19692 7.82631C8.20494 6.8183 9.5721 6.252 10.9977 6.252ZM10.9977 8.40202C10.1423 8.40202 9.32202 8.7418 8.71721 9.34661C8.1124 9.95142 7.77262 10.7717 7.77262 11.627C7.77262 12.4824 8.1124 13.3027 8.71721 13.9075C9.32202 14.5123 10.1423 14.8521 10.9977 14.8521C11.853 14.8521 12.6733 14.5123 13.2781 13.9075C13.8829 13.3027 14.2227 12.4824 14.2227 11.627C14.2227 10.7717 13.8829 9.95142 13.2781 9.34661C12.6733 8.7418 11.853 8.40202 10.9977 8.40202Z" fill="#244AC8"/>
</svg>