<svg xmlns="http://www.w3.org/2000/svg" width="23" height="19" viewBox="0 0 23 19" fill="none">
<path d="M22.6293 2.17687C21.8016 2.55313 20.9093 2.80038 19.9848 2.91863C20.9308 2.34888 21.6618 1.44587 22.0058 0.360108C21.1136 0.897613 20.1246 1.27387 19.0818 1.48887C18.2325 0.56436 17.0393 0.0268555 15.6848 0.0268555C13.1585 0.0268555 11.0945 2.09087 11.0945 4.63865C11.0945 5.00415 11.1375 5.3589 11.2127 5.69216C7.3857 5.49865 3.97792 3.66039 1.70965 0.876113C1.3119 1.55337 1.08614 2.34888 1.08614 3.18738C1.08614 4.78915 1.8924 6.20816 3.13941 7.01442C2.37616 7.01442 1.66665 6.79942 1.04314 6.47691V6.50916C1.04314 8.74518 2.63416 10.6157 4.74118 11.035C4.0647 11.2201 3.35452 11.2458 2.66641 11.1102C2.95839 12.0266 3.53022 12.8285 4.30152 13.4031C5.07281 13.9777 6.00479 14.2962 6.96644 14.3137C5.33633 15.6042 3.31571 16.3018 1.23665 16.2917C0.871143 16.2917 0.50564 16.2702 0.140137 16.2272C2.18265 17.5388 4.61217 18.302 7.2137 18.302C15.6848 18.302 20.3396 11.2715 20.3396 5.17615C20.3396 4.9719 20.3396 4.7784 20.3288 4.57414C21.2318 3.92914 22.0058 3.11213 22.6293 2.17687Z" fill="#244AC8"/>
</svg>