<svg xmlns="http://www.w3.org/2000/svg" width="20" height="21" viewBox="0 0 20 21" fill="none">
<path d="M17.7501 0.952637C18.3203 0.952637 18.8671 1.17914 19.2703 1.58233C19.6735 1.98552 19.9 2.53236 19.9 3.10255V18.152C19.9 18.7222 19.6735 19.269 19.2703 19.6722C18.8671 20.0754 18.3203 20.3019 17.7501 20.3019H2.7007C2.1305 20.3019 1.58366 20.0754 1.18048 19.6722C0.777289 19.269 0.550781 18.7222 0.550781 18.152V3.10255C0.550781 2.53236 0.777289 1.98552 1.18048 1.58233C1.58366 1.17914 2.1305 0.952637 2.7007 0.952637H17.7501ZM17.2126 17.6145V11.9172C17.2126 10.9878 16.8434 10.0964 16.1862 9.43925C15.529 8.78205 14.6377 8.41284 13.7083 8.41284C12.7945 8.41284 11.7303 8.97182 11.2144 9.81029V8.61708H8.21523V17.6145H11.2144V12.3149C11.2144 11.4872 11.8808 10.81 12.7086 10.81C13.1077 10.81 13.4905 10.9686 13.7727 11.2508C14.0549 11.533 14.2135 11.9158 14.2135 12.3149V17.6145H17.2126ZM4.72162 6.9294C5.20058 6.9294 5.65992 6.73913 5.9986 6.40046C6.33728 6.06178 6.52755 5.60243 6.52755 5.12347C6.52755 4.12376 5.72133 3.30679 4.72162 3.30679C4.2398 3.30679 3.77772 3.49819 3.43703 3.83889C3.09634 4.17958 2.90494 4.64166 2.90494 5.12347C2.90494 6.12318 3.72191 6.9294 4.72162 6.9294ZM6.21581 17.6145V8.61708H3.23818V17.6145H6.21581Z" fill="#244AC8"/>
</svg>